<?xml version="1.0" encoding="UTF-8"?>
<svg xmlns="http://www.w3.org/2000/svg" xmlns:xlink="http://www.w3.org/1999/xlink" width="109pt" height="32pt" viewBox="0 0 109 32" version="1.1">
<g id="surface1">
<path style=" stroke:none;fill-rule:nonzero;fill:rgb(13.333333%,13.333333%,13.333333%);fill-opacity:1;" d="M 0.710938 24.828125 L 0.710938 12.597656 L 15.855469 12.597656 L 15.855469 11.882812 L 0.710938 11.882812 L 0.710938 0.726562 L 16.8125 0.726562 L 16.8125 0.0117188 L 0 0.0117188 L 0 25.542969 L 16.953125 25.542969 L 16.953125 24.828125 Z M 30.609375 7.160156 L 24.332031 15.492188 L 18.195312 7.164062 L 17.273438 7.164062 L 23.90625 16.03125 L 16.636719 25.542969 L 17.488281 25.542969 L 24.332031 16.566406 L 31.214844 25.542969 L 32.101562 25.542969 L 24.792969 16.03125 L 31.460938 7.160156 Z M 34.230469 31.835938 L 34.230469 20.394531 L 34.300781 20.394531 C 34.726562 22.0625 35.566406 23.402344 36.816406 24.417969 C 38.070312 25.429688 39.667969 25.9375 41.605469 25.9375 C 42.859375 25.9375 43.972656 25.679688 44.941406 25.167969 C 45.910156 24.65625 46.71875 23.957031 47.371094 23.074219 C 48.019531 22.191406 48.515625 21.167969 48.859375 20 C 49.203125 18.832031 49.375 17.605469 49.375 16.316406 C 49.375 14.933594 49.195312 13.660156 48.84375 12.492188 C 48.488281 11.324219 47.972656 10.308594 47.300781 9.449219 C 46.625 8.59375 45.808594 7.925781 44.851562 7.449219 C 43.894531 6.972656 42.8125 6.734375 41.605469 6.734375 C 40.683594 6.734375 39.828125 6.871094 39.035156 7.144531 C 38.242188 7.417969 37.539062 7.804688 36.925781 8.304688 C 36.304688 8.8125 35.769531 9.40625 35.328125 10.078125 C 34.878906 10.757812 34.535156 11.5 34.300781 12.3125 L 34.230469 12.3125 L 34.230469 7.160156 L 33.519531 7.160156 L 33.519531 31.835938 Z M 41.605469 25.257812 C 39.382812 25.257812 37.597656 24.488281 36.25 22.949219 C 34.902344 21.414062 34.230469 19.203125 34.230469 16.316406 C 34.230469 15.125 34.394531 13.992188 34.726562 12.917969 C 35.054688 11.847656 35.535156 10.90625 36.160156 10.09375 C 36.789062 9.285156 37.5625 8.640625 38.484375 8.164062 C 39.40625 7.6875 40.449219 7.449219 41.605469 7.449219 C 42.789062 7.449219 43.824219 7.6875 44.710938 8.164062 C 45.597656 8.640625 46.332031 9.289062 46.910156 10.113281 C 47.488281 10.933594 47.925781 11.875 48.222656 12.9375 C 48.515625 14 48.664062 15.125 48.664062 16.316406 C 48.664062 17.390625 48.527344 18.457031 48.257812 19.515625 C 47.984375 20.578125 47.566406 21.53125 46.996094 22.378906 C 46.429688 23.222656 45.703125 23.914062 44.816406 24.453125 C 43.929688 24.988281 42.859375 25.257812 41.605469 25.257812 Z M 53.277344 25.542969 L 53.277344 15.136719 C 53.277344 14.136719 53.417969 13.15625 53.703125 12.203125 C 53.984375 11.25 54.421875 10.410156 55.015625 9.683594 C 55.605469 8.957031 56.355469 8.382812 57.265625 7.964844 C 58.175781 7.550781 59.257812 7.375 60.511719 7.449219 L 60.511719 6.734375 C 59.425781 6.710938 58.472656 6.828125 57.65625 7.089844 C 56.839844 7.351562 56.136719 7.710938 55.546875 8.164062 C 54.957031 8.617188 54.480469 9.148438 54.128906 9.753906 C 53.773438 10.363281 53.511719 11.019531 53.347656 11.703125 L 53.277344 11.703125 L 53.277344 7.160156 L 52.566406 7.160156 L 52.566406 25.542969 Z M 61.398438 16.496094 L 76.652344 16.496094 C 76.699219 15.230469 76.574219 14.015625 76.277344 12.847656 C 75.984375 11.679688 75.511719 10.644531 74.859375 9.738281 C 74.210938 8.832031 73.371094 8.105469 72.339844 7.554688 C 71.3125 7.007812 70.089844 6.734375 68.671875 6.734375 C 67.652344 6.734375 66.660156 6.949219 65.691406 7.375 C 64.722656 7.804688 63.871094 8.429688 63.136719 9.253906 C 62.402344 10.078125 61.8125 11.082031 61.363281 12.277344 C 60.914062 13.46875 60.691406 14.828125 60.691406 16.351562 C 60.691406 17.710938 60.84375 18.980469 61.152344 20.160156 C 61.457031 21.339844 61.929688 22.367188 62.570312 23.234375 C 63.207031 24.105469 64.03125 24.78125 65.035156 25.257812 C 66.039062 25.734375 67.25 25.960938 68.671875 25.9375 C 70.75 25.9375 72.5 25.347656 73.917969 24.164062 C 75.339844 22.984375 76.179688 21.324219 76.4375 19.175781 L 75.730469 19.175781 C 75.421875 21.203125 74.636719 22.722656 73.371094 23.738281 C 72.105469 24.75 70.515625 25.257812 68.597656 25.257812 C 67.296875 25.257812 66.199219 25.03125 65.300781 24.578125 C 64.402344 24.125 63.667969 23.503906 63.101562 22.71875 C 62.535156 21.929688 62.113281 21.007812 61.84375 19.945312 C 61.570312 18.886719 61.421875 17.734375 61.398438 16.496094 Z M 75.941406 15.78125 L 61.398438 15.78125 C 61.46875 14.492188 61.707031 13.335938 62.109375 12.3125 C 62.511719 11.285156 63.035156 10.410156 63.6875 9.683594 C 64.335938 8.957031 65.09375 8.402344 65.957031 8.019531 C 66.820312 7.640625 67.75 7.449219 68.742188 7.449219 C 69.921875 7.449219 70.964844 7.667969 71.863281 8.109375 C 72.761719 8.550781 73.511719 9.152344 74.113281 9.914062 C 74.71875 10.679688 75.171875 11.566406 75.480469 12.578125 C 75.789062 13.59375 75.941406 14.660156 75.941406 15.78125 Z M 91.371094 12.597656 L 92.082031 12.597656 C 92.082031 10.546875 91.488281 9.058594 90.308594 8.128906 C 89.125 7.199219 87.515625 6.734375 85.484375 6.734375 C 84.347656 6.734375 83.390625 6.875 82.609375 7.164062 C 81.828125 7.449219 81.191406 7.816406 80.695312 8.269531 C 80.199219 8.722656 79.84375 9.222656 79.628906 9.773438 C 79.417969 10.320312 79.3125 10.84375 79.3125 11.347656 C 79.3125 12.347656 79.488281 13.144531 79.84375 13.742188 C 80.199219 14.339844 80.753906 14.804688 81.511719 15.136719 C 82.03125 15.375 82.621094 15.589844 83.285156 15.78125 C 83.945312 15.972656 84.714844 16.171875 85.589844 16.386719 C 86.371094 16.578125 87.136719 16.769531 87.894531 16.960938 C 88.652344 17.152344 89.320312 17.40625 89.898438 17.730469 C 90.480469 18.050781 90.953125 18.460938 91.316406 18.964844 C 91.683594 19.464844 91.867188 20.121094 91.867188 20.929688 C 91.867188 21.714844 91.683594 22.382812 91.316406 22.933594 C 90.953125 23.476562 90.476562 23.9375 89.917969 24.273438 C 89.347656 24.617188 88.71875 24.867188 88.019531 25.023438 C 87.320312 25.179688 86.640625 25.257812 85.980469 25.257812 C 83.828125 25.257812 82.179688 24.773438 81.03125 23.808594 C 79.886719 22.84375 79.3125 21.324219 79.3125 19.25 L 78.601562 19.25 C 78.601562 21.5625 79.222656 23.253906 80.464844 24.328125 C 81.707031 25.398438 83.542969 25.9375 85.980469 25.9375 C 86.761719 25.9375 87.546875 25.847656 88.339844 25.667969 C 89.128906 25.488281 89.839844 25.195312 90.46875 24.792969 C 91.089844 24.390625 91.609375 23.855469 91.992188 23.21875 C 92.382812 22.574219 92.578125 21.789062 92.578125 20.859375 C 92.578125 19.976562 92.40625 19.261719 92.0625 18.710938 C 91.71875 18.164062 91.269531 17.710938 90.714844 17.355469 C 90.160156 16.996094 89.53125 16.714844 88.835938 16.511719 C 88.132812 16.308594 87.429688 16.113281 86.726562 15.921875 C 85.855469 15.695312 84.988281 15.46875 84.117188 15.242188 C 83.371094 15.054688 82.679688 14.828125 82.042969 14.5625 C 81.429688 14.300781 80.9375 13.925781 80.570312 13.4375 C 80.203125 12.949219 80.019531 12.25 80.019531 11.347656 C 80.019531 11.179688 80.066406 10.882812 80.164062 10.453125 C 80.257812 10.023438 80.480469 9.585938 80.835938 9.148438 C 81.191406 8.707031 81.734375 8.3125 82.46875 7.964844 C 83.203125 7.621094 84.207031 7.449219 85.484375 7.449219 C 86.359375 7.449219 87.15625 7.542969 87.878906 7.734375 C 88.597656 7.925781 89.21875 8.230469 89.738281 8.644531 C 90.261719 9.0625 90.660156 9.59375 90.945312 10.238281 C 91.230469 10.882812 91.371094 11.667969 91.371094 12.597656 Z M 107.792969 12.597656 L 108.503906 12.597656 C 108.503906 10.546875 107.914062 9.058594 106.730469 8.128906 C 105.546875 7.199219 103.941406 6.734375 101.90625 6.734375 C 100.769531 6.734375 99.8125 6.875 99.03125 7.164062 C 98.253906 7.449219 97.613281 7.816406 97.117188 8.269531 C 96.621094 8.722656 96.265625 9.222656 96.054688 9.773438 C 95.839844 10.320312 95.734375 10.84375 95.734375 11.347656 C 95.734375 12.347656 95.910156 13.144531 96.265625 13.742188 C 96.621094 14.339844 97.175781 14.804688 97.933594 15.136719 C 98.453125 15.375 99.042969 15.589844 99.707031 15.78125 C 100.367188 15.972656 101.136719 16.171875 102.011719 16.386719 C 102.792969 16.578125 103.5625 16.769531 104.316406 16.960938 C 105.074219 17.152344 105.742188 17.40625 106.320312 17.730469 C 106.902344 18.050781 107.375 18.460938 107.742188 18.964844 C 108.105469 19.464844 108.289062 20.121094 108.289062 20.929688 C 108.289062 21.714844 108.105469 22.382812 107.742188 22.933594 C 107.378906 23.476562 106.898438 23.933594 106.339844 24.273438 C 105.773438 24.617188 105.140625 24.867188 104.441406 25.023438 C 103.746094 25.179688 103.066406 25.257812 102.402344 25.257812 C 100.25 25.257812 98.601562 24.773438 97.453125 23.808594 C 96.308594 22.84375 95.734375 21.324219 95.734375 19.25 L 95.023438 19.25 C 95.023438 21.5625 95.644531 23.253906 96.886719 24.328125 C 98.128906 25.398438 99.96875 25.9375 102.402344 25.9375 C 103.183594 25.9375 103.96875 25.847656 104.761719 25.667969 C 105.554688 25.488281 106.261719 25.195312 106.890625 24.792969 C 107.511719 24.390625 108.03125 23.855469 108.414062 23.21875 C 108.804688 22.574219 109 21.789062 109 20.859375 C 109 19.976562 108.828125 19.261719 108.484375 18.710938 C 108.144531 18.164062 107.695312 17.710938 107.136719 17.355469 C 106.582031 16.996094 105.957031 16.714844 105.257812 16.511719 C 104.554688 16.308594 103.851562 16.113281 103.148438 15.921875 C 102.277344 15.695312 101.410156 15.46875 100.539062 15.242188 C 99.796875 15.054688 99.105469 14.828125 98.464844 14.5625 C 97.851562 14.300781 97.359375 13.925781 96.992188 13.4375 C 96.625 12.949219 96.445312 12.25 96.445312 11.347656 C 96.445312 11.179688 96.492188 10.882812 96.585938 10.453125 C 96.679688 10.023438 96.90625 9.585938 97.257812 9.148438 C 97.613281 8.707031 98.15625 8.3125 98.890625 7.964844 C 99.625 7.621094 100.628906 7.449219 101.90625 7.449219 C 102.78125 7.449219 103.578125 7.542969 104.300781 7.734375 C 105.023438 7.925781 105.640625 8.230469 106.164062 8.644531 C 106.683594 9.0625 107.085938 9.59375 107.367188 10.238281 C 107.652344 10.882812 107.792969 11.667969 107.792969 12.597656 Z M 107.792969 12.597656 "/>
</g>
</svg>
