<?xml version="1.0" encoding="UTF-8"?>
<svg xmlns="http://www.w3.org/2000/svg" xmlns:xlink="http://www.w3.org/1999/xlink" width="42pt" height="48pt" viewBox="0 0 42 48" version="1.1">
<g id="surface1">
<path style=" stroke:none;fill-rule:nonzero;fill:rgb(89.803922%,20.784314%,67.058824%);fill-opacity:1;" d="M 4.296875 35.984375 L 2.613281 35.015625 L 21.378906 2.636719 L 23.066406 3.605469 Z M 4.296875 35.984375 "/>
<path style=" stroke:none;fill-rule:nonzero;fill:rgb(89.803922%,20.784314%,67.058824%);fill-opacity:1;" d="M 2.226562 32.429688 L 39.761719 32.429688 L 39.761719 34.367188 L 2.226562 34.367188 Z M 2.226562 32.429688 "/>
<path style=" stroke:none;fill-rule:nonzero;fill:rgb(89.803922%,20.784314%,67.058824%);fill-opacity:1;" d="M 21.742188 44.3125 L 2.96875 33.515625 L 3.941406 31.839844 L 22.714844 42.636719 Z M 38.054688 16.171875 L 19.277344 5.375 L 20.25 3.695312 L 39.027344 14.496094 Z M 38.054688 16.171875 "/>
<path style=" stroke:none;fill-rule:nonzero;fill:rgb(89.803922%,20.784314%,67.058824%);fill-opacity:1;" d="M 3.945312 16.164062 L 2.972656 14.488281 L 21.75 3.691406 L 22.722656 5.367188 Z M 3.945312 16.164062 "/>
<path style=" stroke:none;fill-rule:nonzero;fill:rgb(89.803922%,20.784314%,67.058824%);fill-opacity:1;" d="M 37.707031 35.984375 L 18.941406 3.605469 L 20.625 2.636719 L 39.390625 35.015625 Z M 3.714844 13.203125 L 5.660156 13.203125 L 5.660156 34.796875 L 3.714844 34.796875 Z M 3.714844 13.203125 "/>
<path style=" stroke:none;fill-rule:nonzero;fill:rgb(89.803922%,20.784314%,67.058824%);fill-opacity:1;" d="M 36.339844 13.203125 L 38.285156 13.203125 L 38.285156 34.796875 L 36.339844 34.796875 Z M 36.339844 13.203125 "/>
<path style=" stroke:none;fill-rule:nonzero;fill:rgb(89.803922%,20.784314%,67.058824%);fill-opacity:1;" d="M 21.414062 43.496094 L 20.5625 42.027344 L 36.890625 32.636719 L 37.742188 34.101562 Z M 21.414062 43.496094 "/>
<path style=" stroke:none;fill-rule:nonzero;fill:rgb(89.803922%,20.784314%,67.058824%);fill-opacity:1;" d="M 40.863281 35.429688 C 39.738281 37.378906 37.230469 38.042969 35.273438 36.921875 C 33.316406 35.800781 32.648438 33.304688 33.773438 31.355469 C 34.898438 29.40625 37.40625 28.738281 39.363281 29.859375 C 41.332031 30.992188 42 33.480469 40.863281 35.429688 M 8.214844 16.644531 C 7.089844 18.59375 4.582031 19.261719 2.625 18.140625 C 0.667969 17.019531 0 14.519531 1.125 12.570312 C 2.25 10.621094 4.757812 9.957031 6.714844 11.078125 C 8.671875 12.210938 9.339844 14.695312 8.214844 16.644531 M 1.136719 35.429688 C 0.0117188 33.480469 0.679688 30.992188 2.636719 29.859375 C 4.59375 28.738281 7.089844 29.40625 8.226562 31.355469 C 9.351562 33.304688 8.683594 35.789062 6.726562 36.921875 C 4.757812 38.042969 2.261719 37.378906 1.136719 35.429688 M 33.785156 16.644531 C 32.660156 14.695312 33.328125 12.210938 35.285156 11.078125 C 37.242188 9.957031 39.738281 10.621094 40.875 12.570312 C 42 14.519531 41.332031 17.007812 39.375 18.140625 C 37.417969 19.261719 34.910156 18.59375 33.785156 16.644531 M 21 46.855469 C 18.738281 46.855469 16.910156 45.035156 16.910156 42.78125 C 16.910156 40.527344 18.738281 38.707031 21 38.707031 C 23.261719 38.707031 25.089844 40.527344 25.089844 42.78125 C 25.089844 45.023438 23.261719 46.855469 21 46.855469 M 21 9.292969 C 18.738281 9.292969 16.910156 7.472656 16.910156 5.21875 C 16.910156 2.964844 18.738281 1.144531 21 1.144531 C 23.261719 1.144531 25.089844 2.964844 25.089844 5.21875 C 25.089844 7.472656 23.261719 9.292969 21 9.292969 "/>
</g>
</svg>
