<?xml version="1.0" encoding="UTF-8"?>
<svg xmlns="http://www.w3.org/2000/svg" xmlns:xlink="http://www.w3.org/1999/xlink" width="49pt" height="49pt" viewBox="0 0 49 49" version="1.1">
<g id="surface1">
<path style=" stroke:none;fill-rule:nonzero;fill:rgb(19.215686%,47.058824%,77.647059%);fill-opacity:1;" d="M 4.785156 0 L 44.214844 0 C 46.859375 0 49 2.140625 49 4.785156 L 49 44.214844 C 49 46.859375 46.859375 49 44.214844 49 L 4.785156 49 C 2.140625 49 0 46.859375 0 44.214844 L 0 4.785156 C 0 2.140625 2.140625 0 4.785156 0 Z M 4.785156 0 "/>
<path style=" stroke:none;fill-rule:nonzero;fill:rgb(19.215686%,47.058824%,77.647059%);fill-opacity:1;" d="M 4.785156 0 L 44.214844 0 C 46.859375 0 49 2.140625 49 4.785156 L 49 44.214844 C 49 46.859375 46.859375 49 44.214844 49 L 4.785156 49 C 2.140625 49 0 46.859375 0 44.214844 L 0 4.785156 C 0 2.140625 2.140625 0 4.785156 0 Z M 4.785156 0 "/>
<path style=" stroke:none;fill-rule:evenodd;fill:rgb(100%,100%,100%);fill-opacity:1;" d="M 30.332031 38.992188 L 30.332031 43.78125 C 31.109375 44.183594 32.03125 44.480469 33.09375 44.679688 C 34.160156 44.878906 35.28125 44.980469 36.457031 44.980469 C 37.605469 44.980469 38.695312 44.871094 39.730469 44.652344 C 40.765625 44.429688 41.671875 44.070312 42.449219 43.566406 C 43.226562 43.0625 43.84375 42.402344 44.300781 41.589844 C 44.753906 40.777344 44.980469 39.769531 44.980469 38.574219 C 44.980469 37.703125 44.851562 36.941406 44.589844 36.289062 C 44.332031 35.636719 43.957031 35.054688 43.46875 34.546875 C 42.976562 34.035156 42.390625 33.578125 41.707031 33.175781 C 41.023438 32.769531 40.253906 32.390625 39.394531 32.03125 C 38.765625 31.769531 38.199219 31.519531 37.703125 31.273438 C 37.203125 31.027344 36.777344 30.78125 36.429688 30.523438 C 36.078125 30.269531 35.808594 30 35.621094 29.714844 C 35.429688 29.433594 35.335938 29.109375 35.335938 28.75 C 35.335938 28.421875 35.417969 28.125 35.589844 27.859375 C 35.757812 27.597656 36 27.367188 36.308594 27.179688 C 36.617188 26.988281 36.996094 26.84375 37.445312 26.738281 C 37.894531 26.632812 38.394531 26.582031 38.945312 26.582031 C 39.34375 26.582031 39.765625 26.609375 40.210938 26.671875 C 40.65625 26.730469 41.101562 26.820312 41.550781 26.945312 C 42 27.070312 42.4375 27.230469 42.859375 27.417969 C 43.285156 27.609375 43.675781 27.828125 44.035156 28.078125 L 44.035156 23.601562 C 43.308594 23.320312 42.511719 23.113281 41.648438 22.980469 C 40.785156 22.84375 39.792969 22.777344 38.675781 22.777344 C 37.535156 22.777344 36.457031 22.898438 35.441406 23.144531 C 34.421875 23.390625 33.523438 23.769531 32.75 24.289062 C 31.976562 24.808594 31.367188 25.46875 30.917969 26.273438 C 30.46875 27.078125 30.242188 28.039062 30.242188 29.15625 C 30.242188 30.582031 30.652344 31.800781 31.476562 32.808594 C 32.300781 33.816406 33.550781 34.667969 35.230469 35.367188 C 35.890625 35.636719 36.503906 35.902344 37.070312 36.160156 C 37.640625 36.421875 38.132812 36.691406 38.546875 36.96875 C 38.960938 37.25 39.289062 37.554688 39.527344 37.882812 C 39.769531 38.214844 39.886719 38.585938 39.886719 39.007812 C 39.886719 39.316406 39.8125 39.601562 39.664062 39.867188 C 39.511719 40.132812 39.285156 40.363281 38.980469 40.554688 C 38.675781 40.75 38.296875 40.902344 37.84375 41.011719 C 37.390625 41.121094 36.859375 41.175781 36.25 41.175781 C 35.210938 41.175781 34.179688 40.996094 33.164062 40.632812 C 32.144531 40.265625 31.199219 39.71875 30.332031 38.992188 Z M 22.277344 27.1875 L 28.421875 27.1875 L 28.421875 23.257812 L 11.292969 23.257812 L 11.292969 27.1875 L 17.410156 27.1875 L 17.410156 44.695312 L 22.277344 44.695312 Z M 22.277344 27.1875 "/>
</g>
</svg>
